<?xml version="1.0" encoding="UTF-8"?>
<svg xmlns="http://www.w3.org/2000/svg" version="1.1" viewBox="0 0 1366 768">
  <defs>
    <style>
      .cls-1 {
        stroke-width: 10px;
      }

      .cls-1, .cls-2, .cls-3, .cls-4 {
        fill: none;
      }

      .cls-1, .cls-5, .cls-3, .cls-4 {
        stroke-miterlimit: 10;
      }

      .cls-1, .cls-3, .cls-4 {
        stroke: #031838;
      }

      .cls-5 {
        stroke: #000;
        stroke-width: 5px;
      }

      .cls-5, .cls-6 {
        fill: #031838;
      }

      .cls-3 {
        stroke-width: 12px;
      }

      .cls-4 {
        stroke-width: 14px;
      }
    </style>
  </defs>
  <!-- Generator: Adobe Illustrator 28.6.0, SVG Export Plug-In . SVG Version: 1.2.0 Build 709)  -->
  <g>
    <g id="Lag_1">
      <g>
        <circle class="cls-2" cx="647" cy="375" r="304"/>
        <path d="M615.56,71.79c.33-4.25.58-8.08.75-11.48.17-3.4.28-7.35.34-11.83.06-4.48.07-9.21.02-14.19-.05-4.97-.12-8.93-.2-11.87,3.01-.02,5.44-.05,7.3-.11,1.93-.06,4.27-.18,7.04-.37,2.77-.19,5.46-.32,8.08-.4,3.08-.09,5.83-.05,8.24.12,1.81.12,3.46.42,4.96.9,1.5.49,2.76,1.09,3.79,1.82,1.03.73,1.9,1.55,2.6,2.47.7.92,1.26,2.01,1.67,3.26.41,1.25.64,2.6.68,4.05.05,1.61-.11,3.13-.48,4.55-.37,1.42-.97,2.76-1.82,4.03-.84,1.27-1.92,2.37-3.23,3.31-1.31.94-3.16,1.92-5.54,2.93l2.01,4.53c.57,1.26,1.17,2.54,1.81,3.85l5.15,10.44c.23.45.64,1.34,1.24,2.67-3.97.07-6.64.12-8.01.16-1.73.05-4.57.16-8.52.32-.42-1.24-1.19-3.54-2.3-6.91-.45-1.41-.83-2.49-1.15-3.26-.63-1.69-1.55-4.06-2.78-7.11l-4.02-10.11c1.31.2,2.59.29,3.84.25,1.76-.05,3.35-.36,4.76-.94,1.42-.57,2.48-1.42,3.18-2.55.7-1.13,1.04-2.31,1-3.54-.03-1.03-.33-1.94-.91-2.7-.58-.77-1.47-1.32-2.67-1.68-1.2-.35-3.04-.49-5.52-.42-.84.02-1.71.07-2.62.13s-1.95.12-3.16.18c-.16,4.95-.26,10.97-.29,18.08-.03,7.11.02,14.09.15,20.93-4.03.07-6.64.12-7.85.16-1.4.04-3.92.14-7.56.29Z"/>
        <path d="M659.02,69.45l3.73-4.71,23.62-32.1,2.54-3.61c.74-1.06,1.78-2.59,3.12-4.58,4.19.67,7.25,1.14,9.17,1.42,3.36.49,6.47.93,9.34,1.3l3.02,15.67,6.39,30.23,1.3,5.52c-4.12-.65-6.62-1.05-7.5-1.18-2-.29-4.95-.7-8.85-1.23-.47-4.09-1.3-8.93-2.49-14.54l-18-2.65c-2.69,3.89-5.51,8.2-8.47,12.92-4.43-.7-7.15-1.12-8.15-1.27-1.81-.27-4.74-.67-8.78-1.22ZM690.27,49.25l11.1,1.63c-1.52-8.8-2.35-13.65-2.49-14.55-2.09,3.27-3.84,5.94-5.27,8.01l-3.35,4.9Z"/>
        <path d="M722.81,79.47c2.3-5.02,4.08-9.05,5.34-12.11,1.88-4.55,4.23-10.46,7.06-17.75,2.16-5.57,3.66-9.58,4.5-12.02l1.38-4c2.64.99,4.93,1.82,6.86,2.49,1.87.65,4.33,1.44,7.39,2.38,3.06.94,5.93,1.88,8.59,2.8,3.05,1.05,5.66,2.16,7.83,3.32,2.17,1.16,4.06,2.65,5.66,4.48,1.6,1.83,2.75,3.89,3.46,6.2.71,2.31.98,4.82.83,7.53-.15,2.71-.67,5.38-1.58,8-.89,2.57-2.02,4.95-3.39,7.14-1.37,2.19-2.87,4.07-4.51,5.65-1.64,1.57-3.35,2.82-5.14,3.75-1.79.92-3.69,1.59-5.71,1.98-1.5.3-2.96.43-4.38.4-1.42-.03-3.27-.3-5.57-.82-2.55-.58-5.39-1.4-8.51-2.48l-13.76-4.87c-1.3-.45-3.42-1.14-6.35-2.08ZM741.13,74.29c1.21.55,2.5,1.06,3.87,1.53,2.32.8,4.46,1.31,6.42,1.53,1.96.22,3.86-.1,5.7-.97,1.84-.87,3.46-2.24,4.84-4.12,1.39-1.88,2.46-3.92,3.23-6.13.94-2.71,1.24-5.16.9-7.35-.34-2.19-1.19-3.94-2.57-5.23-1.38-1.29-3.46-2.42-6.26-3.39-1.64-.57-3.6-1.17-5.88-1.8l-10.25,25.93Z"/>
        <path d="M774.64,98.23c3.52-5.16,6.4-9.51,8.66-13.05s5.18-8.29,8.76-14.25c3.58-5.96,5.92-9.93,7.01-11.92l1.5-2.81c4.96,2.77,10.98,6.1,18.05,9.98,6.53,3.58,12.29,6.71,17.3,9.4l-.63,1.01c-.16.24-.71,1.13-1.66,2.66l-2.08,3.34c-.45.71-.88,1.45-1.29,2.21-3.98-2.4-7.36-4.36-10.13-5.88-3.04-1.67-5.1-2.79-6.17-3.36-1.07-.57-2.76-1.44-5.07-2.59l-4.38,7.08c2.46,1.43,5.35,3.05,8.66,4.87,1.18.65,4.37,2.3,9.57,4.95-1.69,2.59-3.66,5.7-5.9,9.33-3.63-2.04-6.43-3.6-8.39-4.68-2.91-1.6-6.22-3.31-9.91-5.14l-4.6,7.49,3.64,2c1.08.59,3.32,1.78,6.73,3.57l6.64,3.43c.98.51,2.65,1.32,5.02,2.42-1.97,2.99-3.95,6.1-5.95,9.35-5.13-2.87-10.77-5.98-16.92-9.35l-13.96-7.61-4.52-2.43Z"/>
        <path d="M815.56,120.99c2.96-3.07,5.59-5.86,7.88-8.38,2.29-2.52,4.89-5.49,7.79-8.91,2.9-3.42,5.91-7.07,9.04-10.94,3.13-3.87,5.59-6.97,7.39-9.29,2.33,1.9,4.23,3.42,5.7,4.56,1.52,1.18,3.41,2.58,5.67,4.19s4.42,3.22,6.49,4.83c2.44,1.89,4.53,3.67,6.29,5.34,1.32,1.24,2.41,2.52,3.25,3.85.85,1.33,1.43,2.6,1.77,3.82s.48,2.41.44,3.56c-.04,1.16-.31,2.35-.79,3.58s-1.16,2.41-2.05,3.55c-.99,1.27-2.08,2.34-3.27,3.21-1.19.86-2.51,1.51-3.96,1.95-1.46.44-2.99.61-4.6.5-1.61-.11-3.65-.53-6.13-1.26l-1.33,4.78c-.36,1.33-.71,2.71-1.05,4.12l-2.67,11.33c-.11.49-.36,1.44-.75,2.85-3.11-2.47-5.2-4.13-6.29-4.97-1.37-1.06-3.63-2.79-6.78-5.17.46-1.23,1.34-3.49,2.62-6.8.55-1.37.94-2.45,1.19-3.24.59-1.71,1.38-4.12,2.38-7.25l3.33-10.36c.88.99,1.81,1.87,2.8,2.63,1.39,1.08,2.81,1.85,4.27,2.31,1.46.46,2.81.48,4.08.05,1.26-.42,2.27-1.12,3.02-2.09.63-.82.97-1.71,1.02-2.67.04-.96-.29-1.95-1-2.99-.71-1.04-2.04-2.31-4-3.84-.67-.52-1.37-1.04-2.1-1.56-.74-.53-1.59-1.15-2.55-1.87-3.27,3.71-7.18,8.3-11.73,13.77-4.55,5.47-8.94,10.88-13.19,16.24-3.15-2.51-5.2-4.13-6.16-4.87-1.11-.86-3.11-2.38-6.02-4.58Z"/>
        <path d="M875.29,153.16c2.78-2.15,5.38-4.27,7.78-6.37,2.23,2.59,4.38,5.01,6.42,7.25,2.08,2.28,4.3,4.64,6.66,7.08-2.5,1.89-5.09,4.01-7.78,6.37-2.25-2.58-4.41-4.99-6.47-7.25s-4.27-4.62-6.61-7.08Z"/>
        <path d="M891.23,192.58c3.82-1.9,7.23-3.65,10.24-5.25,3-1.61,6.45-3.53,10.32-5.79,3.88-2.25,7.94-4.68,12.18-7.27,4.24-2.6,7.6-4.69,10.08-6.27,1.56,2.58,2.84,4.64,3.84,6.21,1.04,1.62,2.35,3.57,3.93,5.85,1.58,2.28,3.08,4.52,4.5,6.73,1.66,2.6,3.04,4.98,4.13,7.13.83,1.61,1.42,3.19,1.77,4.72.35,1.53.48,2.93.39,4.19-.09,1.26-.36,2.43-.78,3.5-.43,1.07-1.08,2.11-1.94,3.11-.86,1-1.91,1.88-3.12,2.66-1.36.87-2.74,1.51-4.15,1.93-1.41.41-2.87.58-4.39.51-1.52-.07-3.02-.43-4.5-1.07s-3.27-1.72-5.36-3.24l-2.85,4.06c-.79,1.13-1.58,2.31-2.37,3.53l-6.31,9.78c-.27.43-.82,1.24-1.66,2.43-2.1-3.37-3.52-5.64-4.26-6.79-.93-1.46-2.49-3.84-4.65-7.14.85-1,2.43-2.84,4.75-5.52.98-1.11,1.71-2,2.21-2.66,1.13-1.41,2.69-3.42,4.67-6.04l6.61-8.65c.5,1.23,1.08,2.37,1.76,3.42.95,1.48,2.03,2.68,3.25,3.6,1.22.92,2.49,1.39,3.82,1.42,1.33.02,2.51-.3,3.55-.96.87-.56,1.49-1.28,1.85-2.17.36-.89.38-1.94.07-3.15-.32-1.21-1.15-2.86-2.48-4.95-.46-.71-.94-1.44-1.46-2.18-.52-.74-1.11-1.61-1.78-2.61-4.33,2.4-9.55,5.41-15.66,9.04-6.12,3.63-12.07,7.26-17.87,10.88-2.13-3.42-3.52-5.64-4.17-6.65-.75-1.18-2.13-3.29-4.13-6.33Z"/>
        <path d="M915.56,228.65l5.95.79,39.66,3.85,4.4.34c1.29.09,3.13.21,5.53.34,1.57,3.94,2.73,6.81,3.47,8.61,1.29,3.14,2.52,6.04,3.66,8.69l-11.92,10.62-22.7,20.97-4.08,3.95c-1.55-3.88-2.49-6.22-2.83-7.05-.77-1.87-1.93-4.62-3.47-8.23,3.27-2.49,7.01-5.69,11.21-9.58l-6.94-16.81c-4.72-.32-9.86-.54-15.44-.66-1.67-4.16-2.69-6.72-3.08-7.65-.7-1.69-1.85-4.42-3.45-8.16ZM948.91,245.15l4.28,10.38c6.78-5.82,10.52-9.01,11.22-9.59-3.87-.12-7.07-.26-9.58-.42l-5.93-.37Z"/>
        <path d="M939.61,288.57c5.49-.59,9.86-1.13,13.14-1.61,4.87-.71,11.16-1.72,18.86-3.02,5.89-1,10.1-1.76,12.63-2.28l4.14-.86c.5,2.77.96,5.16,1.38,7.17.4,1.93.98,4.46,1.74,7.57.76,3.11,1.42,6.05,1.99,8.81.65,3.16,1.04,5.97,1.16,8.43s-.2,4.84-.95,7.15c-.75,2.31-1.94,4.35-3.56,6.14-1.62,1.79-3.64,3.31-6.04,4.57-2.41,1.26-4.97,2.17-7.68,2.74-2.67.55-5.29.8-7.87.75-2.58-.06-4.97-.38-7.16-.99-2.19-.6-4.14-1.44-5.85-2.5-1.71-1.06-3.25-2.36-4.63-3.89-1.02-1.14-1.88-2.33-2.58-3.56-.7-1.23-1.42-2.97-2.15-5.2-.81-2.49-1.55-5.35-2.22-8.58l-2.86-14.32c-.28-1.34-.77-3.52-1.46-6.52ZM953.43,301.66c.15,1.32.37,2.69.67,4.1.5,2.4,1.16,4.5,1.97,6.3.82,1.8,2.07,3.27,3.75,4.4,1.69,1.14,3.69,1.82,6.02,2.05,2.32.23,4.63.11,6.92-.36,2.81-.58,5.07-1.58,6.78-2.99s2.77-3.04,3.18-4.88c.41-1.84.31-4.21-.29-7.12-.35-1.7-.84-3.69-1.46-5.97l-27.53,4.46Z"/>
        <path d="M950.3,336.02l5.26,2.9,35.55,18,3.98,1.91c1.17.56,2.84,1.33,5.03,2.32.03,4.24.07,7.33.11,9.28.07,3.4.15,6.54.26,9.43l-14.96,5.56-28.76,11.28-5.23,2.2c-.03-4.17-.06-6.7-.07-7.6-.04-2.03-.12-5-.25-8.93,3.95-1.13,8.6-2.75,13.93-4.85l-.35-18.19c-4.28-2.01-8.99-4.09-14.14-6.23-.04-4.49-.07-7.23-.09-8.25-.04-1.83-.12-4.79-.24-8.86ZM975.37,363.52l.22,11.22c8.43-2.95,13.08-4.57,13.94-4.85-3.57-1.52-6.49-2.81-8.77-3.87l-5.39-2.5Z"/>
        <path d="M950.77,400.54c4.12,1.11,7.83,2.06,11.15,2.86,3.31.79,7.17,1.63,11.56,2.52,4.4.89,9.04,1.77,13.94,2.63,4.9.87,8.8,1.53,11.7,1.99-.54,2.96-.95,5.36-1.24,7.19-.3,1.9-.61,4.23-.94,6.98-.32,2.75-.69,5.43-1.1,8.02-.48,3.04-1.03,5.74-1.64,8.08-.45,1.76-1.05,3.33-1.8,4.71-.75,1.38-1.58,2.51-2.49,3.39-.91.88-1.88,1.58-2.91,2.1-1.03.52-2.2.87-3.51,1.04-1.31.17-2.67.15-4.1-.08-1.59-.25-3.06-.69-4.38-1.31-1.33-.62-2.54-1.47-3.63-2.53s-1.98-2.32-2.66-3.78c-.68-1.46-1.3-3.46-1.86-5.98l-4.83,1.14c-1.34.32-2.72.68-4.12,1.07l-11.21,3.14c-.49.14-1.44.38-2.86.72.67-3.92,1.1-6.55,1.32-7.91.27-1.71.69-4.52,1.25-8.43,1.3-.19,3.7-.52,7.21-.99,1.47-.18,2.6-.36,3.41-.52,1.78-.31,4.28-.78,7.5-1.42l10.68-2.09c-.44,1.25-.76,2.49-.95,3.73-.27,1.74-.26,3.35.04,4.85.3,1.5.94,2.7,1.92,3.59.98.9,2.08,1.44,3.29,1.63,1.02.16,1.96.03,2.82-.4.86-.43,1.57-1.2,2.14-2.32s1.04-2.9,1.43-5.35c.13-.83.25-1.7.35-2.6.1-.9.24-1.94.4-3.14-4.83-1.07-10.74-2.28-17.72-3.62-6.98-1.34-13.85-2.58-20.59-3.71.67-3.97,1.1-6.55,1.29-7.74.22-1.38.59-3.88,1.1-7.48Z"/>
        <path d="M951.41,468.34c3.22,1.41,6.33,2.66,9.33,3.76-1.2,3.21-2.28,6.25-3.26,9.12-1,2.92-2,6-3,9.25-2.86-1.28-5.97-2.53-9.33-3.76,1.17-3.21,2.25-6.27,3.24-9.16.99-2.9,2-5.96,3.02-9.2Z"/>
        <path d="M924.52,501.29c3.5,2.44,6.67,4.59,9.52,6.46,2.85,1.87,6.19,3.96,10.03,6.28,3.84,2.32,7.91,4.72,12.23,7.2,4.32,2.48,7.76,4.42,10.34,5.83-1.51,2.61-2.71,4.72-3.6,6.35-.93,1.69-2.01,3.77-3.24,6.25-1.24,2.48-2.49,4.87-3.75,7.17-1.48,2.7-2.91,5.05-4.28,7.05-1.02,1.5-2.11,2.78-3.29,3.82-1.18,1.04-2.34,1.83-3.49,2.35-1.15.52-2.3.85-3.45.99-1.15.14-2.37.07-3.65-.21-1.29-.28-2.57-.77-3.83-1.46-1.42-.78-2.64-1.68-3.68-2.72-1.04-1.04-1.89-2.24-2.56-3.61s-1.07-2.85-1.22-4.46c-.15-1.61-.06-3.69.28-6.25l-4.93-.56c-1.38-.15-2.79-.28-4.24-.39l-11.61-.84c-.51-.03-1.48-.13-2.93-.29,1.95-3.46,3.26-5.79,3.92-6.99.83-1.52,2.18-4.02,4.03-7.51,1.28.26,3.66.77,7.12,1.51,1.44.32,2.57.54,3.39.66,1.78.31,4.29.71,7.54,1.2l10.76,1.65c-.84,1.02-1.56,2.09-2.16,3.18-.84,1.54-1.38,3.07-1.6,4.58-.22,1.51-.03,2.86.59,4.03.62,1.18,1.47,2.06,2.54,2.65.91.5,1.84.69,2.79.58.95-.11,1.88-.59,2.8-1.46s1.96-2.38,3.16-4.55c.41-.74.81-1.51,1.21-2.32s.88-1.75,1.44-2.82c-4.18-2.64-9.33-5.78-15.45-9.4-6.12-3.62-12.16-7.11-18.12-10.46,1.98-3.51,3.26-5.79,3.84-6.85.67-1.23,1.86-3.45,3.57-6.66Z"/>
        <path d="M904.54,539.91l2.17,5.6,15.68,36.63,1.82,4.02c.54,1.17,1.33,2.85,2.36,5.01-2.7,3.27-4.66,5.67-5.88,7.19-2.13,2.64-4.08,5.11-5.86,7.39l-15.04-5.35-29.29-9.83-5.42-1.68c2.66-3.22,4.26-5.18,4.82-5.87,1.27-1.58,3.12-3.91,5.55-7,3.76,1.67,8.36,3.41,13.79,5.23l11.41-14.16c-1.99-4.29-4.27-8.91-6.84-13.86,2.85-3.46,4.6-5.59,5.23-6.38,1.15-1.43,2.98-3.74,5.5-6.95ZM906.09,577.09l-7.04,8.74c8.36,3.15,12.96,4.9,13.8,5.24-1.76-3.46-3.17-6.32-4.23-8.6l-2.53-5.37Z"/>
        <path d="M863.52,589.83c3.17,4.52,5.75,8.09,7.75,10.73,2.97,3.92,6.89,8.94,11.74,15.06,3.72,4.68,6.42,8,8.09,9.96l2.75,3.21c-2.19,1.78-4.06,3.33-5.61,4.66-1.5,1.28-3.43,3.01-5.79,5.17-2.36,2.17-4.62,4.16-6.76,6-2.45,2.1-4.73,3.79-6.82,5.08-2.1,1.29-4.34,2.16-6.72,2.62s-4.75.4-7.1-.16c-2.35-.56-4.66-1.59-6.92-3.09-2.27-1.5-4.3-3.3-6.1-5.41-1.77-2.07-3.25-4.25-4.45-6.53-1.2-2.29-2.06-4.54-2.59-6.75-.53-2.21-.74-4.32-.64-6.33.1-2.01.5-3.99,1.18-5.93.5-1.45,1.13-2.77,1.87-3.98.74-1.21,1.92-2.67,3.52-4.39,1.79-1.91,3.94-3.94,6.44-6.09l11.16-9.41c1.04-.89,2.71-2.37,5.01-4.43ZM858.73,608.25c-1.08.77-2.17,1.62-3.27,2.56-1.87,1.6-3.39,3.19-4.57,4.77-1.18,1.58-1.86,3.39-2.04,5.41-.18,2.03.19,4.11,1.1,6.26.92,2.15,2.14,4.11,3.66,5.88,1.86,2.18,3.83,3.67,5.89,4.49,2.06.82,4,.96,5.81.42,1.81-.54,3.84-1.76,6.09-3.69,1.32-1.13,2.83-2.51,4.53-4.16l-17.19-21.96Z"/>
        <path d="M821.15,625.07c2.68,5.64,4.98,10.33,6.9,14.06,1.92,3.74,4.55,8.65,7.89,14.75,3.34,6.1,5.59,10.12,6.76,12.06l1.67,2.71c-4.9,2.88-10.8,6.41-17.72,10.56-6.38,3.83-11.99,7.23-16.84,10.2l-.55-1.06c-.13-.26-.61-1.19-1.46-2.78l-1.84-3.48c-.39-.75-.81-1.49-1.25-2.23,4.08-2.23,7.48-4.16,10.18-5.78,2.97-1.79,4.98-3,6.02-3.63,1.04-.64,2.63-1.66,4.79-3.07l-3.9-7.35c-2.47,1.4-5.33,3.08-8.58,5.02-1.16.7-4.19,2.62-9.1,5.76-1.38-2.77-3.08-6.03-5.09-9.8,3.6-2.1,6.35-3.73,8.27-4.88,2.85-1.71,5.99-3.7,9.44-5.96l-4.15-7.75-3.56,2.14c-1.05.63-3.21,1.97-6.47,4.02l-6.32,4c-.94.59-2.48,1.63-4.62,3.11-1.59-3.21-3.28-6.49-5.07-9.85,5.06-2.99,10.6-6.28,16.61-9.89l13.61-8.22,4.38-2.67Z"/>
        <path d="M780.86,648.94c1.15,4.11,2.24,7.78,3.25,11.04,1.02,3.25,2.27,6.99,3.76,11.22s3.11,8.67,4.88,13.33,3.19,8.34,4.28,11.07c-2.82,1.05-5.09,1.92-6.81,2.62-1.79.72-3.95,1.64-6.48,2.77-2.53,1.13-5.01,2.19-7.45,3.16-2.86,1.15-5.45,2.06-7.78,2.73-1.74.52-3.39.8-4.97.86-1.57.06-2.97-.08-4.19-.4-1.22-.33-2.32-.8-3.29-1.42s-1.87-1.45-2.69-2.48c-.82-1.04-1.49-2.22-2.03-3.56-.6-1.5-.97-2.98-1.12-4.44-.14-1.46-.04-2.93.32-4.41s.98-2.89,1.89-4.22c.9-1.34,2.3-2.89,4.19-4.66l-3.45-3.56c-.97-.99-1.98-1.98-3.03-2.99l-8.43-8.02c-.37-.34-1.07-1.04-2.08-2.08,3.71-1.43,6.19-2.41,7.47-2.92,1.61-.64,4.24-1.72,7.88-3.24.82,1.02,2.34,2.92,4.54,5.69.91,1.17,1.64,2.05,2.2,2.66,1.17,1.37,2.86,3.28,5.06,5.72l7.26,8.1c-1.3.26-2.53.62-3.69,1.09-1.63.65-3.01,1.49-4.15,2.52-1.13,1.02-1.83,2.19-2.1,3.49s-.18,2.52.28,3.66c.39.96.98,1.7,1.79,2.22.81.52,1.83.74,3.08.65,1.25-.09,3.03-.59,5.33-1.51.78-.31,1.59-.66,2.41-1.03.83-.37,1.79-.79,2.9-1.26-1.55-4.7-3.54-10.39-5.96-17.07-2.42-6.68-4.88-13.21-7.36-19.59,3.76-1.46,6.19-2.41,7.31-2.85,1.3-.52,3.63-1.48,6.99-2.88Z"/>
        <path d="M722.94,684.2c.44,3.49.96,6.8,1.55,9.94-3.37.61-6.53,1.23-9.5,1.86-3.02.64-6.18,1.36-9.48,2.15-.36-3.11-.88-6.42-1.55-9.94,3.36-.64,6.54-1.27,9.53-1.91,2.99-.63,6.14-1.34,9.45-2.11Z"/>
        <path d="M680.88,677.95c-.3,4.25-.52,8.08-.66,11.49-.14,3.4-.22,7.35-.25,11.83-.03,4.48,0,9.21.09,14.19.09,4.97.19,8.93.3,11.87-3.01.04-5.44.09-7.3.16-1.93.07-4.27.21-7.03.42-2.76.21-5.46.37-8.08.46-3.08.11-5.83.1-8.25-.05-1.81-.1-3.47-.39-4.97-.86-1.5-.47-2.77-1.07-3.81-1.79-1.04-.72-1.91-1.54-2.62-2.45-.71-.91-1.27-2-1.69-3.25-.42-1.25-.66-2.6-.71-4.04-.06-1.61.09-3.13.45-4.55s.95-2.77,1.78-4.04c.83-1.27,1.9-2.38,3.2-3.34,1.3-.95,3.14-1.94,5.51-2.97l-2.05-4.52c-.58-1.26-1.19-2.54-1.84-3.84l-5.23-10.4c-.23-.45-.65-1.34-1.26-2.67,3.97-.1,6.64-.17,8.01-.23,1.73-.06,4.57-.19,8.51-.39.43,1.24,1.22,3.53,2.36,6.89.46,1.4.85,2.49,1.17,3.25.64,1.69,1.59,4.05,2.83,7.09l4.1,10.08c-1.31-.19-2.59-.26-3.84-.22-1.76.07-3.34.39-4.75.97-1.41.58-2.47,1.44-3.16,2.58-.69,1.13-1.02,2.32-.97,3.54.04,1.03.35,1.93.93,2.7.58.76,1.48,1.31,2.68,1.65,1.21.34,3.05.47,5.53.37.84-.03,1.71-.08,2.62-.15.9-.07,1.95-.14,3.16-.21.12-4.95.17-10.97.15-18.08-.03-7.11-.13-14.08-.32-20.92,4.03-.1,6.64-.17,7.85-.22,1.4-.05,3.92-.17,7.55-.35Z"/>
        <path d="M637.41,680.63l-3.69,4.74-23.36,32.28-2.51,3.63c-.73,1.07-1.76,2.6-3.09,4.6-4.19-.63-7.25-1.08-9.19-1.35-3.36-.47-6.48-.88-9.35-1.23l-3.15-15.65-6.63-30.18-1.35-5.51c4.13.62,6.63,1,7.51,1.12,2.01.28,4.96.67,8.86,1.16.5,4.08,1.37,8.92,2.61,14.52l18.02,2.5c2.66-3.91,5.45-8.24,8.37-12.99,4.44.67,7.16,1.07,8.16,1.21,1.82.25,4.74.64,8.79,1.15ZM606.32,701.08l-11.12-1.55c1.59,8.79,2.46,13.63,2.6,14.53,2.06-3.28,3.79-5.97,5.2-8.05l3.31-4.93Z"/>
        <path d="M573.57,671.13c-2.26,5.04-4,9.08-5.24,12.15-1.84,4.56-4.15,10.5-6.91,17.8-2.11,5.59-3.58,9.61-4.4,12.05l-1.35,4.01c-2.65-.97-4.94-1.78-6.88-2.43-1.87-.63-4.34-1.4-7.41-2.32-3.07-.92-5.94-1.83-8.61-2.73-3.06-1.03-5.68-2.12-7.86-3.26-2.18-1.14-4.08-2.62-5.69-4.43-1.61-1.81-2.78-3.87-3.5-6.17-.72-2.3-1.02-4.81-.9-7.53.13-2.72.63-5.39,1.52-8.01.87-2.58,1.98-4.97,3.33-7.17s2.84-4.1,4.47-5.68c1.63-1.59,3.33-2.85,5.11-3.79,1.78-.94,3.68-1.62,5.7-2.03,1.5-.31,2.96-.45,4.38-.43,1.42.02,3.28.28,5.57.77,2.56.56,5.4,1.36,8.53,2.41l13.8,4.76c1.3.44,3.42,1.12,6.37,2.03ZM555.29,676.46c-1.22-.54-2.51-1.04-3.88-1.5-2.33-.78-4.47-1.28-6.44-1.48-1.96-.2-3.86.14-5.7,1.02-1.83.88-3.44,2.27-4.81,4.16-1.37,1.89-2.43,3.94-3.18,6.16-.91,2.72-1.19,5.17-.84,7.36.36,2.19,1.23,3.93,2.61,5.21,1.39,1.28,3.48,2.39,6.29,3.34,1.64.55,3.61,1.14,5.89,1.75l10.04-26.01Z"/>
        <path d="M527.2,656.43l-5.16,3.07-33.52,21.54-3.66,2.46c-1.07.73-2.59,1.78-4.55,3.16-3.67-2.12-6.36-3.65-8.06-4.61-2.96-1.66-5.71-3.18-8.26-4.55l2.78-15.72,4.83-30.52.75-5.63c3.62,2.08,5.81,3.34,6.59,3.78,1.77.99,4.38,2.43,7.83,4.31-1.02,3.98-1.98,8.81-2.87,14.47l15.86,8.9c3.9-2.67,8.08-5.69,12.53-9.05,3.89,2.24,6.27,3.6,7.16,4.1,1.6.9,4.19,2.32,7.76,4.27ZM490.8,664.14l-9.79-5.49c-1.72,8.77-2.68,13.59-2.87,14.48,3.12-2.31,5.71-4.17,7.78-5.6l4.88-3.38Z"/>
        <path d="M471.34,624.14c-3.05,2.98-5.75,5.7-8.12,8.16-2.36,2.46-5.04,5.35-8.04,8.69-3,3.34-6.11,6.9-9.34,10.68-3.23,3.78-5.78,6.81-7.65,9.08-2.28-1.97-4.14-3.54-5.57-4.72-1.49-1.22-3.34-2.67-5.54-4.35-2.21-1.68-4.33-3.35-6.35-5.01-2.38-1.96-4.43-3.79-6.13-5.51-1.29-1.28-2.34-2.59-3.14-3.94s-1.36-2.64-1.66-3.87c-.3-1.23-.41-2.42-.33-3.57.08-1.15.37-2.34.89-3.55s1.23-2.38,2.15-3.5c1.03-1.25,2.14-2.28,3.35-3.11,1.21-.83,2.55-1.44,4.02-1.84,1.47-.4,3-.52,4.61-.37s3.64.63,6.1,1.43l1.46-4.74c.4-1.32.79-2.69,1.17-4.09l2.98-11.25c.12-.49.4-1.43.83-2.83,3.04,2.56,5.09,4.28,6.15,5.15,1.34,1.1,3.55,2.89,6.63,5.36-.5,1.21-1.43,3.45-2.81,6.72-.59,1.36-1.01,2.43-1.28,3.21-.64,1.69-1.5,4.08-2.58,7.19l-3.62,10.26c-.85-1.01-1.76-1.92-2.73-2.71-1.36-1.12-2.76-1.93-4.2-2.43s-2.8-.56-4.07-.17c-1.27.39-2.3,1.06-3.08,2.01-.66.8-1.02,1.68-1.09,2.63-.07.96.23,1.96.91,3.02.68,1.05,1.97,2.37,3.89,3.95.65.54,1.34,1.08,2.06,1.62.72.54,1.55,1.19,2.5,1.94,3.38-3.62,7.41-8.1,12.11-13.43,4.7-5.34,9.25-10.63,13.65-15.87,3.08,2.6,5.09,4.28,6.02,5.04,1.08.89,3.04,2.47,5.89,4.75Z"/>
        <path d="M412.56,590.33c-2.84,2.07-5.5,4.12-7.96,6.15-2.16-2.65-4.23-5.13-6.22-7.43-2.01-2.33-4.17-4.76-6.46-7.26,2.55-1.82,5.2-3.87,7.96-6.15,2.18,2.64,4.27,5.11,6.27,7.43,2,2.32,4.13,4.74,6.41,7.26Z"/>
        <path d="M397.72,550.48c-3.87,1.79-7.33,3.44-10.38,4.96-3.05,1.52-6.54,3.35-10.48,5.49-3.94,2.14-8.07,4.45-12.38,6.93-4.31,2.48-7.73,4.47-10.25,5.99-1.49-2.62-2.71-4.72-3.66-6.31-.99-1.65-2.25-3.64-3.77-5.96-1.52-2.32-2.95-4.6-4.31-6.85-1.59-2.64-2.9-5.06-3.93-7.25-.79-1.63-1.33-3.22-1.64-4.77-.31-1.54-.4-2.94-.27-4.2.13-1.26.42-2.42.88-3.48s1.13-2.08,2.02-3.05c.89-.97,1.96-1.83,3.2-2.57,1.38-.83,2.78-1.43,4.2-1.81s2.89-.5,4.4-.39c1.52.12,3.01.51,4.47,1.19,1.46.68,3.22,1.81,5.26,3.39l2.97-3.97c.82-1.11,1.65-2.27,2.47-3.46l6.58-9.6c.28-.42.86-1.22,1.73-2.39,2,3.43,3.36,5.73,4.06,6.91.89,1.49,2.38,3.91,4.45,7.27-.87.98-2.51,2.77-4.9,5.39-1.01,1.08-1.77,1.95-2.28,2.59-1.17,1.38-2.78,3.34-4.84,5.9l-6.85,8.46c-.46-1.24-1.02-2.4-1.66-3.47-.9-1.51-1.95-2.74-3.15-3.69-1.19-.96-2.45-1.46-3.78-1.52s-2.52.23-3.57.86c-.89.53-1.52,1.24-1.91,2.12s-.44,1.93-.15,3.15c.28,1.22,1.06,2.89,2.34,5.02.43.72.9,1.46,1.4,2.22s1.06,1.64,1.71,2.66c4.39-2.28,9.7-5.14,15.91-8.6,6.21-3.46,12.27-6.91,18.17-10.37,2.03,3.48,3.36,5.73,3.98,6.77.72,1.2,2.04,3.35,3.95,6.44Z"/>
        <path d="M374.42,513.75l-5.93-.96-39.54-4.98-4.39-.46c-1.29-.13-3.13-.29-5.52-.49-1.46-3.98-2.54-6.88-3.23-8.71-1.21-3.17-2.34-6.1-3.42-8.79l12.21-10.28,23.28-20.32,4.19-3.83c1.44,3.92,2.31,6.29,2.63,7.13.72,1.89,1.8,4.67,3.24,8.33-3.34,2.4-7.17,5.49-11.48,9.26l6.46,17c4.71.45,9.84.82,15.41,1.1,1.55,4.21,2.5,6.79,2.86,7.73.65,1.71,1.72,4.47,3.21,8.26ZM341.55,496.31l-3.99-10.49c-6.94,5.62-10.77,8.71-11.49,9.26,3.87.23,7.06.46,9.56.69l5.91.53Z"/>
        <path d="M352.09,453.18c-5.5.44-9.89.85-13.18,1.24-4.89.57-11.2,1.4-18.94,2.48-5.92.83-10.15,1.47-12.69,1.93l-4.16.74c-.42-2.79-.81-5.19-1.17-7.2-.35-1.94-.85-4.48-1.52-7.62-.67-3.13-1.25-6.09-1.74-8.86-.57-3.18-.87-6-.92-8.46-.05-2.46.34-4.84,1.15-7.12.82-2.29,2.06-4.3,3.73-6.04,1.67-1.74,3.73-3.21,6.17-4.4,2.44-1.19,5.03-2.03,7.75-2.52,2.68-.48,5.31-.65,7.89-.52,2.58.13,4.96.53,7.13,1.19,2.17.67,4.1,1.55,5.78,2.66,1.68,1.11,3.18,2.45,4.51,4.02.99,1.17,1.82,2.38,2.48,3.63.66,1.25,1.33,3,2,5.26.74,2.51,1.4,5.39,1.98,8.64l2.45,14.39c.24,1.35.67,3.54,1.28,6.56ZM338.64,439.71c-.11-1.33-.3-2.7-.55-4.12-.43-2.42-1.03-4.54-1.79-6.36-.76-1.82-1.97-3.32-3.63-4.51-1.65-1.18-3.64-1.93-5.96-2.22s-4.62-.24-6.92.17c-2.82.5-5.11,1.44-6.86,2.8-1.75,1.36-2.85,2.96-3.31,4.79-.46,1.83-.43,4.2.09,7.12.3,1.71.73,3.71,1.29,6.01l27.64-3.68Z"/>
        <path d="M343.35,398.88c-6.22-.5-11.43-.86-15.63-1.07-4.2-.21-9.77-.4-16.72-.56-6.95-.17-11.56-.23-13.83-.19l-3.18.09c-.04-5.68-.13-12.56-.26-20.63-.12-7.44-.25-14-.39-19.69l1.19.05c.29.02,1.33.06,3.14.13l3.93.15c.84.03,1.69.04,2.56.03-.12,4.65-.15,8.56-.1,11.71.06,3.47.1,5.81.13,7.03.03,1.22.12,3.11.25,5.69l8.32.3c.03-2.84,0-6.16-.05-9.94-.02-1.35-.16-4.94-.43-10.77,3.09.19,6.76.36,11.03.51.02,4.17.05,7.37.08,9.61.05,3.32.2,7.04.43,11.15l8.79.29-.07-4.15c-.02-1.23-.1-3.77-.23-7.62l-.3-7.47c-.04-1.11-.17-2.96-.38-5.56,3.57.23,7.26.41,11.07.54.05,5.88.13,12.32.24,19.33l.29,15.9.12,5.13Z"/>
        <path d="M343.04,351.9c-4.13-1.08-7.85-2-11.17-2.77-3.32-.76-7.18-1.57-11.58-2.42s-9.06-1.69-13.96-2.52c-4.91-.83-8.81-1.46-11.72-1.89.52-2.97.91-5.37,1.18-7.2.28-1.91.58-4.24.88-6.99.3-2.76.65-5.43,1.03-8.03.46-3.05.98-5.75,1.57-8.09.43-1.76,1.02-3.34,1.76-4.72.74-1.39,1.56-2.52,2.46-3.41.9-.89,1.86-1.6,2.89-2.13,1.03-.53,2.2-.88,3.5-1.07,1.31-.18,2.67-.17,4.1.05,1.6.24,3.06.66,4.39,1.28,1.33.61,2.55,1.45,3.65,2.5,1.1,1.05,1.99,2.31,2.69,3.76.7,1.46,1.33,3.44,1.91,5.96l4.82-1.18c1.34-.34,2.71-.7,4.11-1.1l11.19-3.23c.48-.15,1.44-.39,2.85-.74-.63,3.92-1.05,6.56-1.25,7.92-.26,1.71-.65,4.53-1.19,8.44-1.3.2-3.7.55-7.21,1.05-1.47.2-2.6.38-3.41.55-1.78.32-4.27.81-7.49,1.48l-10.66,2.18c.43-1.25.74-2.5.92-3.73.26-1.74.23-3.36-.08-4.85-.31-1.5-.96-2.69-1.95-3.58-.99-.89-2.09-1.43-3.3-1.61-1.02-.15-1.96-.01-2.82.42-.86.43-1.56,1.21-2.12,2.33-.56,1.12-1.02,2.91-1.38,5.36-.12.83-.24,1.7-.33,2.6-.1.9-.22,1.95-.38,3.14,4.84,1.03,10.75,2.19,17.75,3.48,6.99,1.28,13.87,2.47,20.62,3.54-.64,3.98-1.05,6.56-1.23,7.75-.21,1.38-.55,3.88-1.04,7.49Z"/>
        <path d="M341.84,284.12c-3.24-1.38-6.36-2.61-9.36-3.68,1.17-3.22,2.23-6.26,3.19-9.14.97-2.93,1.95-6.02,2.93-9.27,2.87,1.26,5.99,2.48,9.36,3.68-1.15,3.22-2.2,6.29-3.17,9.19s-1.95,5.98-2.95,9.22Z"/>
        <path d="M368.48,250.95c-3.52-2.41-6.71-4.54-9.57-6.38-2.87-1.84-6.23-3.91-10.08-6.2s-7.95-4.66-12.28-7.1-7.8-4.36-10.39-5.75c1.49-2.62,2.67-4.74,3.55-6.38.91-1.7,1.98-3.79,3.19-6.28,1.22-2.49,2.45-4.89,3.69-7.2,1.46-2.72,2.87-5.08,4.22-7.08,1-1.51,2.09-2.79,3.26-3.85,1.17-1.05,2.33-1.85,3.47-2.38,1.15-.53,2.29-.87,3.44-1.02,1.15-.15,2.37-.09,3.66.18,1.29.27,2.57.75,3.85,1.43,1.42.76,2.66,1.66,3.7,2.69,1.05,1.03,1.91,2.22,2.58,3.58.68,1.36,1.1,2.85,1.26,4.45.16,1.6.09,3.69-.23,6.26l4.93.52c1.38.14,2.79.26,4.24.35l11.62.75c.51.03,1.48.11,2.93.27-1.92,3.48-3.21,5.82-3.86,7.03-.82,1.53-2.15,4.04-3.97,7.54-1.29-.25-3.66-.74-7.14-1.45-1.45-.31-2.58-.52-3.39-.63-1.78-.3-4.3-.68-7.55-1.14l-10.77-1.56c.83-1.03,1.54-2.1,2.13-3.2.83-1.55,1.36-3.08,1.57-4.59.21-1.51,0-2.86-.62-4.03s-1.48-2.05-2.56-2.63c-.91-.49-1.84-.68-2.8-.56-.95.12-1.88.61-2.78,1.48-.9.87-1.94,2.39-3.12,4.58-.4.74-.8,1.52-1.19,2.33-.4.81-.87,1.76-1.42,2.83,4.2,2.61,9.38,5.7,15.52,9.28,6.15,3.57,12.22,7.01,18.21,10.32-1.95,3.52-3.21,5.82-3.78,6.88-.66,1.23-1.83,3.46-3.52,6.69Z"/>
        <path d="M388.15,212.14l-2.21-5.58-15.97-36.51-1.85-4c-.55-1.17-1.35-2.84-2.4-5,2.67-3.29,4.61-5.7,5.82-7.23,2.11-2.66,4.04-5.14,5.8-7.43l15.08,5.23,29.37,9.6,5.44,1.64c-2.63,3.24-4.22,5.21-4.77,5.91-1.26,1.59-3.09,3.94-5.49,7.05-3.77-1.64-8.38-3.35-13.83-5.12l-11.3,14.25c2.02,4.27,4.34,8.88,6.95,13.8-2.82,3.49-4.55,5.62-5.18,6.42-1.14,1.44-2.95,3.77-5.45,6.99ZM386.3,174.98l6.97-8.79c-8.38-3.09-13-4.8-13.84-5.13,1.78,3.44,3.22,6.3,4.3,8.57l2.57,5.35Z"/>
        <path d="M428.75,161.93c-3.2-4.49-5.81-8.05-7.83-10.67-3.01-3.9-6.96-8.89-11.86-14.97-3.76-4.65-6.48-7.95-8.17-9.89l-2.77-3.19c2.17-1.79,4.03-3.36,5.58-4.71,1.49-1.3,3.41-3.04,5.75-5.22,2.35-2.18,4.58-4.2,6.71-6.05,2.43-2.12,4.7-3.83,6.78-5.14s4.32-2.2,6.7-2.67c2.38-.47,4.75-.44,7.1.1,2.35.54,4.67,1.55,6.95,3.03,2.28,1.48,4.33,3.27,6.15,5.36,1.79,2.05,3.29,4.22,4.5,6.5,1.22,2.28,2.1,4.52,2.64,6.73.55,2.21.78,4.31.69,6.32-.09,2.01-.46,3.99-1.13,5.94-.49,1.45-1.11,2.78-1.84,4-.73,1.21-1.89,2.69-3.48,4.42-1.77,1.93-3.9,3.97-6.39,6.14l-11.08,9.5c-1.04.9-2.69,2.39-4.97,4.47ZM433.4,143.47c1.08-.78,2.16-1.64,3.25-2.59,1.85-1.61,3.36-3.21,4.53-4.8s1.84-3.4,2-5.43c.17-2.03-.22-4.11-1.15-6.25-.94-2.14-2.17-4.09-3.7-5.85-1.88-2.16-3.86-3.64-5.93-4.45-2.07-.8-4.01-.93-5.81-.38-1.81.55-3.83,1.8-6.06,3.74-1.31,1.14-2.81,2.54-4.49,4.2l17.37,21.82Z"/>
        <path d="M464.89,129.34l-.05-6.01-1.7-39.81-.28-4.4c-.09-1.29-.23-3.13-.44-5.53,3.68-2.1,6.36-3.65,8.04-4.64,2.93-1.72,5.63-3.33,8.1-4.84l12.17,10.33,23.92,19.56,4.48,3.49c-3.62,2.07-5.82,3.33-6.59,3.78-1.75,1.03-4.3,2.55-7.67,4.59-2.92-2.89-6.61-6.15-11.05-9.77l-15.69,9.21c.34,4.72.84,9.84,1.49,15.38-3.89,2.23-6.28,3.6-7.15,4.11-1.58.93-4.12,2.44-7.61,4.55ZM476.6,94.02l9.68-5.68c-6.7-5.91-10.39-9.17-11.05-9.78.42,3.85.72,7.03.91,9.54l.46,5.92Z"/>
        <path d="M520.92,97.38c-1.03-4.14-2.01-7.84-2.94-11.12-.92-3.28-2.07-7.05-3.44-11.32-1.37-4.27-2.87-8.76-4.49-13.46-1.63-4.7-2.95-8.43-3.97-11.19,2.85-.97,5.15-1.78,6.89-2.42,1.81-.67,3.99-1.53,6.55-2.59s5.07-2.04,7.54-2.95c2.89-1.07,5.51-1.9,7.85-2.51,1.75-.47,3.42-.71,4.99-.72,1.57-.01,2.97.16,4.18.52,1.21.36,2.3.87,3.25,1.52.96.65,1.83,1.5,2.62,2.56.79,1.06,1.43,2.26,1.93,3.62.56,1.51.89,3,.99,4.47.1,1.46-.04,2.93-.44,4.4-.4,1.47-1.07,2.86-2.01,4.17-.94,1.31-2.38,2.82-4.32,4.54l3.35,3.66c.94,1.02,1.92,2.04,2.94,3.07l8.2,8.26c.36.35,1.04,1.07,2.02,2.14-3.74,1.33-6.26,2.23-7.55,2.7-1.63.6-4.28,1.6-7.97,3.01-.8-1.04-2.25-2.98-4.38-5.82-.88-1.19-1.58-2.1-2.12-2.72-1.13-1.4-2.77-3.36-4.9-5.86l-7.03-8.31c1.3-.22,2.54-.55,3.72-.98,1.65-.61,3.06-1.41,4.22-2.4,1.16-.99,1.9-2.14,2.2-3.43.31-1.29.25-2.52-.18-3.67-.36-.97-.93-1.73-1.72-2.27-.79-.54-1.81-.79-3.06-.74-1.25.05-3.04.5-5.37,1.36-.79.29-1.6.61-2.44.96-.84.35-1.81.74-2.94,1.18,1.42,4.74,3.24,10.49,5.48,17.24,2.23,6.75,4.5,13.35,6.8,19.79-3.8,1.35-6.26,2.23-7.39,2.65-1.31.48-3.67,1.38-7.07,2.68Z"/>
        <path d="M579.8,63.79c-.34-3.5-.77-6.83-1.27-9.98,3.38-.52,6.57-1.05,9.55-1.59,3.03-.55,6.21-1.18,9.54-1.88.27,3.12.7,6.45,1.27,9.98-3.38.54-6.57,1.09-9.58,1.64-3.01.55-6.18,1.16-9.51,1.84Z"/>
      </g>
      <path class="cls-5" d="M524.86,510.13c2.64-24.38,4.72-46.33,6.25-65.86,1.53-19.53,2.85-42.17,3.96-67.94s1.94-52.94,2.5-81.54c.55-28.6.83-51.35.83-68.25,17.31.42,31.3.62,41.96.62s24.58-.31,40.51-.94c15.93-.62,31.44-.93,46.53-.93,17.72,0,33.51.69,47.36,2.08,10.38.97,19.83,2.98,28.35,6.03,8.52,3.05,15.68,6.75,21.5,11.11s10.66,9.25,14.54,14.65c3.88,5.4,6.89,11.74,9.04,19.01,2.15,7.27,3.22,15.06,3.22,23.37,0,9.28-1.18,17.97-3.53,26.07-2.36,8.1-6.06,15.72-11.12,22.85-5.06,7.14-11.43,13.3-19.11,18.49-7.69,5.19-18.46,10.49-32.31,15.89l10.8,26.38c3.04,7.34,6.3,14.82,9.76,22.44l27.84,60.87c1.25,2.63,3.46,7.83,6.65,15.58-22.84-.28-38.2-.42-46.09-.42-9.97,0-26.3.14-49,.42-2.22-7.2-6.24-20.57-12.06-40.1-2.36-8.17-4.37-14.47-6.03-18.91-3.33-9.83-8.25-23.61-14.77-41.34l-21.42-58.79c7.48,1.39,14.82,2.08,22.02,2.08,10.11,0,19.29-1.52,27.52-4.57,8.24-3.04,14.47-7.75,18.7-14.13,4.22-6.37,6.34-13.09,6.34-20.15,0-5.95-1.59-11.18-4.78-15.69-3.19-4.5-8.21-7.86-15.06-10.08-6.86-2.21-17.42-3.32-31.68-3.32-4.85,0-9.87.1-15.06.31-5.19.21-11.25.38-18.18.52-1.78,28.4-3.35,63.02-4.71,103.88-1.37,40.86-2.25,80.96-2.66,120.29-23.16-.28-38.21-.42-45.14-.42-8.04,0-22.54.14-43.47.42Z"/>
      <g>
        <path class="cls-1" d="M487.35,499.49c-69.03-69.03-69.03-180.95,0-249.98"/>
        <path class="cls-3" d="M457.1,527.9c-85.55-85.55-85.55-224.25,0-309.79"/>
        <path class="cls-4" d="M361.99,622.96c-137.91-137.91-137.91-361.52,0-499.43"/>
        <path class="cls-6" d="M317.34,667.66c-140.05-137.78-161.78-364.47-51.3-526.73,15.2-22.68,32.63-43.86,51.9-63.18,0,0,11.31,11.31,11.31,11.31-18.55,18.6-35.32,38.97-49.93,60.78-106.23,156.03-85.33,374.04,49.33,506.51,0,0-11.32,11.31-11.32,11.31h0Z"/>
      </g>
      <g>
        <path class="cls-1" d="M822.29,258.79c69.03,69.03,69.03,180.95,0,249.98"/>
        <path class="cls-3" d="M852.53,230.39c85.55,85.55,85.55,224.25,0,309.79"/>
        <path class="cls-4" d="M947.65,135.32c137.91,137.91,137.91,361.52,0,499.43"/>
        <path class="cls-6" d="M992.29,90.63c140.05,137.78,161.78,364.47,51.3,526.74-15.2,22.68-32.63,43.86-51.9,63.18,0,0-11.31-11.31-11.31-11.31,18.55-18.6,35.32-38.97,49.93-60.78,106.23-156.03,85.33-374.04-49.33-506.51,0,0,11.32-11.31,11.32-11.31h0Z"/>
      </g>
    </g>
  </g>
</svg>