<?xml version="1.0" encoding="UTF-8"?>
<svg xmlns="http://www.w3.org/2000/svg" version="1.1" viewBox="0 0 1366 768">
  <defs>
    <style>
      .cls-1 {
        stroke-width: 10px;
      }

      .cls-1, .cls-2, .cls-3 {
        stroke-miterlimit: 10;
      }

      .cls-1, .cls-3 {
        fill: none;
        stroke: #031838;
      }

      .cls-2 {
        fill: #031838;
        stroke: #000;
        stroke-width: 5px;
      }

      .cls-3 {
        stroke-width: 12px;
      }
    </style>
  </defs>
  <!-- Generator: Adobe Illustrator 28.6.0, SVG Export Plug-In . SVG Version: 1.2.0 Build 709)  -->
  <g>
    <g id="Lag_1">
      <path class="cls-2" d="M553.04,515.49c2.64-24.38,4.72-46.33,6.25-65.86,1.53-19.53,2.85-42.17,3.96-67.94s1.94-52.94,2.5-81.54c.55-28.6.83-51.35.83-68.25,17.31.42,31.3.62,41.96.62s24.58-.31,40.51-.94c15.93-.62,31.44-.93,46.53-.93,17.72,0,33.51.69,47.36,2.08,10.38.97,19.83,2.98,28.35,6.03,8.52,3.05,15.68,6.75,21.5,11.11s10.66,9.25,14.54,14.65c3.88,5.4,6.89,11.74,9.04,19.01,2.15,7.27,3.22,15.06,3.22,23.37,0,9.28-1.18,17.97-3.53,26.07-2.36,8.1-6.06,15.72-11.12,22.85-5.06,7.14-11.43,13.3-19.11,18.49-7.69,5.19-18.46,10.49-32.31,15.89l10.8,26.38c3.04,7.34,6.3,14.82,9.76,22.44l27.84,60.87c1.25,2.63,3.46,7.83,6.65,15.58-22.84-.28-38.2-.42-46.09-.42-9.97,0-26.3.14-49,.42-2.22-7.2-6.24-20.57-12.06-40.1-2.36-8.17-4.37-14.47-6.03-18.91-3.33-9.83-8.25-23.61-14.77-41.34l-21.42-58.79c7.48,1.39,14.82,2.08,22.02,2.08,10.11,0,19.29-1.52,27.52-4.57,8.24-3.04,14.47-7.75,18.7-14.13,4.22-6.37,6.34-13.09,6.34-20.15,0-5.95-1.59-11.18-4.78-15.69-3.19-4.5-8.21-7.86-15.06-10.08-6.86-2.21-17.42-3.32-31.68-3.32-4.85,0-9.87.1-15.06.31-5.19.21-11.25.38-18.18.52-1.78,28.4-3.35,63.02-4.71,103.88-1.37,40.86-2.25,80.96-2.66,120.29-23.16-.28-38.21-.42-45.14-.42-8.04,0-22.54.14-43.47.42Z"/>
      <path class="cls-1" d="M515.53,504.85c-69.03-69.03-69.03-180.95,0-249.98"/>
      <path class="cls-3" d="M485.28,533.26c-85.55-85.55-85.55-224.25,0-309.79"/>
      <path class="cls-1" d="M850.47,264.15c69.03,69.03,69.03,180.95,0,249.98"/>
      <path class="cls-3" d="M880.72,235.74c85.55,85.55,85.55,224.25,0,309.79"/>
    </g>
  </g>
</svg>